#!OML:ASF F:\VICON\USERDATA\INSTALL\rory3\rory3.ASF
:FULLY-SPECIFIED
:DEGREES
365
root 4.90859 16.9779 2.50357 10.0891 -10.5024 -8.41342
lowerback 10.4397 -0.765779 4.15804
upperback 2.67904 -0.508918 2.20963
thorax -3.07476 -0.278778 0.0212702
lowerneck -15.0051 -0.881638 -1.52694
upperneck 38.2064 -0.678681 -0.916048
head 16.1514 -0.706414 -0.268312
rclavicle -7.25564e-015 -4.69132e-014
rhumerus -36.9333 14.2403 -60.4243
rradius 50.0661
rwrist 14.268
rhand -19.5424 -41.7201
rfingers 7.12502
rthumb 6.78155 -71.5915
lclavicle -7.25564e-015 -4.69132e-014
lhumerus -18.8108 -3.60476 55.0838
lradius 27.9387
lwrist 10.487
lhand -19.094 -22.9393
lfingers 7.12502
lthumb 7.21438 6.91773
rfemur -93.8134 1.22426 25.0184
rtibia 108.576
rfoot 48.7183 5.84762
rtoes -4.85626
lfemur -29.8077 4.07118 -21.5667
ltibia 42.9226
lfoot -20.4705 5.43121
ltoes 12.4657
366
root 4.91084 16.9753 2.5124 9.91536 -10.5215 -8.43797
lowerback 10.5452 -0.79559 4.20571
upperback 2.71733 -0.539199 2.19617
thorax -3.09439 -0.294038 -0.0145095
lowerneck -14.9687 -0.849242 -1.45539
upperneck 38.1744 -0.651965 -0.925073
head 16.125 -0.686508 -0.279816
rclavicle -1.63997e-014 1.66979e-014
rhumerus -37.4196 14.0599 -60.1497
rradius 49.9818
rwrist 14.3991
rhand -19.9861 -41.3194
rfingers 7.12502
rthumb 6.35323 -71.2041
lclavicle -1.63997e-014 1.66979e-014
lhumerus -19.2911 -3.56355 54.9293
lradius 27.6151
lwrist 10.3725
lhand -19.8203 -24.8432
lfingers 7.12502
lthumb 6.51326 5.03666
rfemur -93.9206 1.14211 25.0736
rtibia 108.455
rfoot 48.8034 5.34193
rtoes -3.1674
lfemur -29.6315 4.2344 -21.5576
ltibia 43.0658
lfoot -20.5819 5.42544
ltoes 11.944
367
root 4.90788 16.9586 2.50273 9.84203 -10.5462 -8.50277
lowerback 10.8449 -0.811871 4.19389
upperback 2.69083 -0.542309 2.20328
thorax -3.28709 -0.298608 0.00403813
lowerneck -15.0415 -0.821159 -1.3133
upperneck 38.2098 -0.619173 -1.01894
head 16.1597 -0.666103 -0.341327
rclavicle 7.15625e-015 -1.86858e-014
rhumerus -37.8261 13.833 -59.8703
rradius 49.9701
rwrist 14.4745
rhand -19.9657 -41.0557
rfingers 7.12502
rthumb 6.3729 -70.9398
lclavicle 7.15625e-015 -1.86858e-014
lhumerus -19.8235 -3.32074 54.6953
lradius 27.5784
lwrist 10.1489
lhand -19.6362 -24.1872
lfingers 7.12502
lthumb 6.69106 5.68713
rfemur -94.2827 1.18014 25.2039
rtibia 108.335
rfoot 48.8801 4.97967
rtoes -2.79153
lfemur -29.7346 4.4895 -21.4922
ltibia 43.2848
lfoot -20.6029 5.30248
ltoes 11.7002
368
root 4.90583 16.9443 2.49162 9.75111 -10.4786 -8.60213
lowerback 11.1821 -0.862046 4.2481
upperback 2.74754 -0.583594 2.23011
thorax -3.41502 -0.320853 0.0112506
lowerneck -15.3258 -0.776195 -1.20123
upperneck 38.3235 -0.54069 -1.12432
head 16.2879 -0.632903 -0.396873
rclavicle 3.8763e-015 6.75868e-015
rhumerus -37.9626 13.4717 -59.5136
rradius 49.8109
rwrist 14.6791
rhand -19.9296 -40.9325
rfingers 7.12502
rthumb 6.40776 -70.8156
lclavicle 3.8763e-015 6.75868e-015
lhumerus -20.179 -2.99331 54.4307
lradius 27.5557
lwrist 10.0819
lhand -18.938 -21.6408
lfingers 7.12502
lthumb 7.36499 8.21105
rfemur -94.5788 1.14735 25.4237
rtibia 108.204
rfoot 48.8096 5.48299
rtoes -4.51123
lfemur -29.8617 4.72227 -21.3802
ltibia 43.5497
lfoot -20.561 5.00638
ltoes 11.7544
